#!OML:ASF E:\Mandelcareful walks\Project 1\Capture day 1\Session 1\Subject1.ASF
:FULLY-SPECIFIED
:DEGREES
721
root -1.81017 15.2604 2.32383 192.885 32.9691 -188.593
lowerback 27.6333 -0.352864 -5.20388
upperback 6.9881 -0.861349 -2.38208
thorax -7.37172 0.157651 0.567683
lowerneck -23.0309 11.8286 6.21815
upperneck 16.7921 15.3291 -4.93285
head 9.93722 6.91504 -0.312063
rclavicle 6.53256e-014 -7.47927e-015
rhumerus 0.76502 12.0521 -68.0206
rradius 113.662
rwrist -7.17511
rhand -25.0847 -14.7982
rfingers 7.12502
rthumb 1.42974 -44.7731
lclavicle 6.53256e-014 -7.47927e-015
lhumerus -5.6492 -21.7064 81.9788
lradius 76.0291
lwrist 13.806
lhand -27.7172 -9.65521
lfingers 7.12502
lthumb -1.11274 20.3216
rfemur -50.7411 -13.7886 2.04471
rtibia 56.0305
rfoot -17.1945 0.308779
rtoes -10.5957
lfemur -44.9656 22.1306 -19.2275
ltibia 52.3989
lfoot -16.3841 9.54829
ltoes -28.1812
722
root -1.81587 15.258 2.33699 192.741 33.1814 -188.612
lowerback 27.8753 -0.318645 -5.23903
upperback 7.08117 -0.816877 -2.43887
thorax -7.38669 0.189451 0.508946
lowerneck -22.176 12.147 7.27068
upperneck 16.5606 15.5686 -5.30931
head 9.84337 7.07386 -0.592656
rclavicle 7.38982e-014 -2.51214e-014
rhumerus 3.49396 10.8872 -66.1511
rradius 116.113
rwrist -6.49646
rhand -26.9746 -13.6133
rfingers 7.12502
rthumb -0.395555 -43.5927
lclavicle 7.38982e-014 -2.51214e-014
lhumerus -5.64959 -21.9741 81.51
lradius 76.0278
lwrist 13.9689
lhand -27.8846 -9.84267
lfingers 7.12502
lthumb -1.27444 20.1333
rfemur -50.713 -13.4516 1.96014
rtibia 56.0669
rfoot -17.2436 0.158147
rtoes -10.9174
lfemur -44.868 22.5598 -19.3
ltibia 52.419
lfoot -16.3536 9.38055
ltoes -27.326
723
root -1.82243 15.2527 2.34612 192.529 33.3309 -188.626
lowerback 28.204 -0.362746 -5.2841
upperback 7.21144 -0.864236 -2.40004
thorax -7.39514 0.179877 0.592286
lowerneck -21.6174 12.4848 7.85619
upperneck 16.5179 15.9368 -5.45458
head 9.81798 7.27688 -0.688295
rclavicle -1.32192e-014 3.46382e-014
rhumerus 6.52895 9.72409 -64.1261
rradius 118.464
rwrist -5.87747
rhand -29.4267 -12.901
rfingers 7.12502
rthumb -2.76376 -42.8629
lclavicle -1.32192e-014 3.46382e-014
lhumerus -5.62584 -21.927 81.1317
lradius 75.9922
lwrist 13.9745
lhand -27.6016 -9.94358
lfingers 7.12502
lthumb -1.00117 20.0338
rfemur -50.5826 -13.2619 1.87382
rtibia 56.0776
rfoot -17.252 0.248694
rtoes -10.2351
lfemur -44.7211 22.9799 -19.3501
ltibia 52.5369
lfoot -16.2175 9.20918
ltoes -26.6416
724
root -1.83985 15.247 2.35177 192.433 33.3323 -188.709
lowerback 28.3563 -0.514592 -5.14775
upperback 7.32068 -1.00035 -2.39144
thorax -7.34352 0.121347 0.568846
lowerneck -20.9486 12.8721 8.64596
upperneck 16.3778 16.4008 -5.96499
head 9.8027 7.50004 -0.923864
rclavicle 1.59773e-014 -1.89094e-014
rhumerus 9.59393 8.46843 -62.2246
rradius 120.818
rwrist -5.28551
rhand -32.3144 -12.6814
rfingers 7.12502
rthumb -5.55229 -42.5886
lclavicle 1.59773e-014 -1.89094e-014
lhumerus -5.5932 -21.8806 80.8299
lradius 75.9435
lwrist 14.1031
lhand -27.2956 -10.0014
lfingers 7.12502
lthumb -0.705577 19.9772
rfemur -50.6018 -13.368 1.77875
rtibia 56.0735
rfoot -17.1585 0.337913
rtoes -10.0975
lfemur -44.7814 23.06 -19.5168
ltibia 52.6299
lfoot -16.1384 9.16806
ltoes -27.4972
725
root -1.9251 15.2237 2.34028 192.791 32.9984 -188.877
lowerback 28.0443 -1.08005 -3.74285
upperback 7.35889 -1.35053 -2.76096
thorax -7.19736 -0.0612908 -0.529981
lowerneck -20.2404 13.2045 9.65507
upperneck 16.1169 16.7228 -6.4429
head 9.74919 7.68003 -1.20758
rclavicle -2.6165e-014 1.81639e-014
rhumerus 12.3453 6.93975 -60.7237
rradius 123.141
rwrist -4.58421
rhand -32.6984 -9.41759
rfingers 7.12502
rthumb -5.92307 -39.3148
lclavicle -2.6165e-014 1.81639e-014
lhumerus -5.3935 -22.2996 80.3738
lradius 75.9384
lwrist 14.2858
lhand -27.2074 -10.0469
lfingers 7.12502
lthumb -0.620396 19.932
rfemur -51.2344 -14.3905 1.63438
rtibia 56.0249
rfoot -16.77 0.76669
rtoes -10.6599
lfemur -45.7704 22.2043 -20.1015
ltibia 52.8398
lfoot -16.1828 9.63544
ltoes -28.2544
726
root -1.91332 15.233 2.35272 192.705 33.1861 -188.745
lowerback 28.2372 -0.931029 -3.84915
upperback 7.48929 -1.15579 -2.6538
thorax -7.14067 0.0410528 -0.414579
lowerneck -19.7492 13.5241 10.102
upperneck 16.0353 17.0989 -6.47981
head 9.70953 7.89052 -1.24269
rclavicle -8.94531e-016 -4.40805e-014
rhumerus 15.1642 5.42949 -59.0479
rradius 125.172
rwrist -3.95197
rhand -35.5989 -10.251
rfingers 7.12502
rthumb -8.72277 -40.0507
lclavicle -8.94531e-016 -4.40805e-014
lhumerus -5.20744 -22.4966 80.2509
lradius 75.8396
lwrist 14.3244
lhand -27.1533 -10.0836
lfingers 7.12502
lthumb -0.568102 19.8954
rfemur -51.0688 -13.9007 1.68727
rtibia 55.9827
rfoot -16.8895 0.578662
rtoes -10.638
lfemur -45.5957 22.5643 -19.8805
ltibia 52.9823
lfoot -16.4232 9.24228
ltoes -28.4361
727
root -1.90568 15.2369 2.36597 192.583 33.3975 -188.682
lowerback 28.4762 -0.840303 -4.20465
upperback 7.61437 -1.09694 -2.36582
thorax -7.09772 0.0781179 0.0897272
lowerneck -19.3812 13.8926 10.1432
upperneck 16.02 17.6524 -6.52971
head 9.69453 8.15162 -1.18755
rclavicle 4.21423e-014 -2.55438e-014
rhumerus 18.408 4.10306 -57.2631
rradius 126.814
rwrist -3.25297
rhand -38.1318 -9.83229
rfingers 7.12502
rthumb -11.1664 -39.5152
lclavicle 4.21423e-014 -2.55438e-014
lhumerus -5.05582 -22.0895 80.4158
lradius 75.6489
lwrist 14.2472
lhand -27.2994 -10.0769
lfingers 7.12502
lthumb -0.709289 19.9017
rfemur -50.9708 -13.5265 1.7114
rtibia 55.9597
rfoot -16.8853 0.518607
rtoes -10.3891
lfemur -45.3703 22.6941 -19.646
ltibia 53.1198
lfoot -16.4871 9.25508
ltoes -28.1065
728
root -1.96154 15.2129 2.36504 192.981 33.3682 -188.771
lowerback 28.1435 -1.26232 -3.38321
upperback 7.60715 -1.42787 -2.55352
thorax -6.97281 -0.0938634 -0.479628
lowerneck -18.9596 14.2626 10.6185
upperneck 15.9713 18.1253 -6.71632
head 9.70881 8.38827 -1.25235
rclavicle 2.9768e-014 -1.47598e-014
rhumerus 21.3452 2.92502 -56.186
rradius 128.284
rwrist -2.0276
rhand -40.5603 -10.3786
rfingers 7.12502
rthumb -13.5079 -39.9205
lclavicle 2.9768e-014 -1.47598e-014
lhumerus -4.97459 -21.9172 80.103
lradius 75.6429
lwrist 14.3079
lhand -27.2913 -9.98795
lfingers 7.12502
lthumb -0.701448 19.9906
rfemur -51.7214 -14.1151 1.67087
rtibia 55.9931
rfoot -16.5226 0.927773
rtoes -10.2084
lfemur -46.2569 22.4319 -20.1304
ltibia 53.2917
lfoot -16.145 9.76737
ltoes -27.7426
729
root -1.95849 15.2118 2.37465 192.838 33.4219 -188.756
lowerback 28.2908 -1.26549 -3.05912
upperback 7.72044 -1.33057 -2.78329
thorax -6.93522 -0.035812 -0.953544
lowerneck -18.5358 14.4374 11.6292
upperneck 15.8704 18.1866 -6.9014
head 9.72283 8.46972 -1.46138
rclavicle 4.99446e-014 -7.45443e-015
rhumerus 23.5637 1.22685 -55.5075
rradius 129.636
rwrist -1.1477
rhand -42.3756 -11.2802
rfingers 7.12502
rthumb -15.257 -40.6975
lclavicle 4.99446e-014 -7.45443e-015
lhumerus -4.79822 -22.614 79.4829
lradius 75.7426
lwrist 14.6612
lhand -27.0274 -9.72317
lfingers 7.12502
lthumb -0.446572 20.2561
rfemur -51.6126 -13.9492 1.65328
rtibia 56.0693
rfoot -16.616 0.878643
rtoes -10.1887
lfemur -46.2381 23.0996 -20.2621
ltibia 53.3668
lfoot -16.0123 9.26544
ltoes -27.874
